<svg width="117" height="127" viewBox="0 0 117 127" fill="none" xmlns="http://www.w3.org/2000/svg">
<path fill-rule="evenodd" clip-rule="evenodd" d="M116.753 47.9924L116.829 48.9798L116.89 49.9695L116.938 50.9613L116.972 51.9551L116.993 52.9506L117 53.9476L116.994 54.9462L116.976 55.9461L116.945 56.9473L116.901 57.9496L116.846 58.9531L116.779 59.9576L116.7 60.9632L116.61 61.9697L116.509 62.9773L116.397 63.9858L116.275 64.9954L116.142 66.0061L115.998 67.0178L115.844 68.0307L115.68 69.0447L115.506 70.0598L115.321 71.0762L115.126 72.0939L114.921 73.1128L114.706 74.133L114.48 75.1544L114.244 76.1771L113.997 77.2011L113.74 78.2262L113.471 79.2524L113.191 80.2796L112.899 81.3077L112.595 82.3367L112.28 83.3662L111.952 84.3961L111.611 85.4263L111.257 86.4565L110.89 87.4864L110.51 88.5158L110.115 89.5443L109.706 90.5716L109.282 91.5974L108.843 92.6212L108.389 93.6426L107.919 94.6611L107.433 95.6763L106.931 96.6875L106.412 97.6942L105.876 98.6958L105.322 99.6917L104.75 100.681L104.161 101.663L103.553 102.638L102.927 103.604L102.282 104.56L101.618 105.507L100.935 106.442L100.233 107.366L99.512 108.277L98.7715 109.175L98.0118 110.059L97.2328 110.928L96.4347 111.78L95.6176 112.616L94.7817 113.435L93.9272 114.235L93.0542 115.017L92.1632 115.778L91.2544 116.519L90.3282 117.238L89.385 117.936L88.4253 118.611L87.4496 119.262L86.4582 119.89L85.4519 120.494L84.4312 121.072L83.3966 121.625L82.3489 122.153L81.2887 122.654L80.2165 123.128L79.1333 123.576L78.0396 123.997L76.9361 124.39L75.8237 124.756L74.703 125.094L73.5748 125.404L72.4399 125.687L71.299 125.942L70.1528 126.169L69.0021 126.368L67.8477 126.54L66.6903 126.684L65.5305 126.801L64.3692 126.891L63.207 126.954L62.0446 126.99L60.8827 127L59.722 126.984L58.563 126.942L57.4065 126.874L56.253 126.782L55.1031 126.664L53.9575 126.522L52.8166 126.356L51.681 126.166L50.5513 125.953L49.4279 125.717L48.3114 125.458L47.2022 125.176L46.1008 124.873L45.0077 124.548L43.9233 124.201L42.8481 123.834L41.7824 123.446L40.7267 123.037L39.6814 122.609L38.6468 122.162L37.6234 121.695L36.6114 121.209L35.6113 120.706L34.6233 120.184L33.6478 119.645L32.685 119.089L31.7353 118.516L30.7989 117.927L29.8761 117.323L28.9671 116.703L28.0721 116.068L27.1914 115.419L26.3252 114.756L25.4736 114.08L24.6367 113.39L23.8148 112.688L23.0079 111.974L22.2163 111.249L21.4398 110.513L20.6787 109.765L19.933 109.008L19.2028 108.242L18.488 107.466L17.7887 106.681L17.105 105.888L16.4367 105.088L15.7839 104.28L15.1466 103.465L14.5247 102.644L13.9182 101.816L13.327 100.983L12.751 100.145L12.1902 99.3013L11.6445 98.4535L11.1138 97.6015L10.5979 96.7457L10.0968 95.8865L9.61035 95.0242L9.13838 94.1591L8.68077 93.2916L8.23737 92.4221L7.80804 91.5507L7.39261 90.6777L6.99092 89.8036L6.60281 88.9285L6.22809 88.0527L5.86658 87.1765L5.5181 86.3001L5.18247 85.4238L4.85948 84.5477L4.54895 83.6721L4.25067 82.7973L3.96445 81.9233L3.69008 81.0504L3.42735 80.1787L3.17606 79.3085L2.936 78.4398L2.70695 77.5729L2.4887 76.7078L2.28103 75.8447L2.08372 74.9837L1.89657 74.1249L1.71933 73.2685L1.5518 72.4144L1.39375 71.5629L1.24496 70.7138L1.10525 69.8674L0.974414 69.0237L0.852293 68.1826L0.738731 67.3442L0.633586 66.5086L0.536735 65.6756L0.448071 64.8453L0.367505 64.0177L0.294966 63.1927L0.230398 62.3704L0.173765 61.5507L0.125047 60.7335L0.084243 59.9189L0.0513668 59.1067L0.02645 58.2971L0.00953942 57.4898L0.000697269 56.685L0 55.8826L0.00753749 55.0826L0.0234121 54.285L0.0477374 53.4897L0.0806372 52.6969L0.122244 51.9065L0.172699 51.1186L0.232155 50.3331L0.300792 49.5502L0.378818 48.77L0.466468 47.9924L0.563997 47.2177L0.67168 46.4459L0.789806 45.6771L0.918676 44.9116L1.0586 44.1494L1.20988 43.3909L1.37283 42.6362L1.54777 41.8856L1.73498 41.1393L1.93475 40.3976L2.14737 39.6609L2.37308 38.9295L2.61212 38.2036L2.8647 37.4838L3.131 36.7702L3.41118 36.0635L3.70537 35.3638L4.01365 34.6717L4.33608 33.9875L4.67269 33.3117L5.02345 32.6446L5.38833 31.9867L5.76722 31.3384L6.16 30.7L6.5665 30.072L6.98654 29.4548L7.41985 28.8486L7.86618 28.2539L8.32521 27.6709L8.79662 27.1L9.28002 26.5414L9.77502 25.9954L10.2812 25.4623L10.7981 24.9422L11.3253 24.4353L11.8623 23.9418L12.4085 23.4618L12.9635 22.9954L13.5268 22.5427L14.0977 22.1037L14.6759 21.6784L15.2606 21.2668L15.8515 20.8689L16.4478 20.4846L17.0491 20.1137L17.6546 19.7561L18.2639 19.4115L18.8764 19.0798L19.4914 18.7606L20.1083 18.4536L20.7267 18.1586L21.3459 17.8749L21.9654 17.6024L22.5847 17.3405L23.2032 17.0887L23.8206 16.8466L24.4363 16.6137L25.0499 16.3893L25.661 16.1729L26.2693 15.9641L26.8744 15.7621L27.476 15.5664L28.074 15.3765L28.6679 15.1917L29.2578 15.0114L29.8434 14.835L30.4247 14.662L31.0014 14.4918L31.5737 14.3237L32.1415 14.1573L32.7048 13.9919L33.2636 13.8269L33.818 13.6618L34.3681 13.4959L34.914 13.3286L35.4559 13.1595L35.994 12.988L36.5286 12.8136L37.0598 12.6357L37.588 12.4541L38.1134 12.2681L38.6366 12.0774L39.1577 11.8818L39.6773 11.6808L40.1957 11.4742L40.7135 11.2618L41.231 11.0434L41.7488 10.8189L42.2673 10.5882L42.787 10.3513L43.3085 10.1081L43.8323 9.85883L44.3589 9.6035L44.8888 9.34231L45.4225 9.07548L45.9606 8.80325L46.5035 8.52595L47.0517 8.24392L47.6057 7.95756L48.1659 7.6673L48.7328 7.37362L49.3068 7.07702L49.8883 6.77804L50.4776 6.47726L51.075 6.17528L51.681 5.87271L52.2958 5.5702L52.9195 5.26841L53.5525 4.96801L54.195 4.6697L54.847 4.37417L55.5087 4.08212L56.1802 3.79427L56.8616 3.51134L57.5528 3.23408L58.2539 2.96323L58.9649 2.69954L59.6856 2.44377L60.4159 2.19668L61.1557 1.95902L61.9048 1.73154L62.6629 1.51497L63.4299 1.31005L64.2054 1.11749L64.9891 0.937992L65.7807 0.772237L66.5798 0.620889L67.3859 0.484587L68.1988 0.363948L69.0178 0.25956L69.8425 0.171986L70.6725 0.101759L71.5072 0.0493779L72.346 0.0153133L73.1885 0L74.034 0.00383874L74.882 0.0271947L75.7318 0.0703964L76.583 0.133731L77.4349 0.217442L78.2868 0.321732L79.1383 0.446757L79.9887 0.592635L80.8374 0.759442L81.6839 0.947214L82.5277 1.15595L83.3681 1.38561L84.2047 1.63612L85.0369 1.90737L85.8642 2.19923L86.6862 2.51153L87.5024 2.84406L88.3123 3.19662L89.1155 3.56894L89.9117 3.96077L90.7004 4.37182L91.4812 4.80178L92.2539 5.25034L93.0181 5.71716L93.7735 6.20191L94.5199 6.70422L95.2569 7.22374L95.9843 7.76011L96.7019 8.31295L97.4095 8.8819L98.1068 9.46659L98.7938 10.0667L99.4702 10.6817L100.136 11.3114L100.791 11.9554L101.434 12.6133L102.067 13.2848L102.688 13.9695L103.298 14.6672L103.896 15.3775L104.483 16.1L105.058 16.8345L105.621 17.5807L106.171 18.3383L106.71 19.107L107.236 19.8865L107.75 20.6766L108.251 21.477L108.74 22.2875L109.215 23.1078L109.678 23.9376L110.127 24.7767L110.562 25.6248L110.984 26.4816L111.393 27.347L111.788 28.2206L112.169 29.1021L112.535 29.9913L112.888 30.8879L113.227 31.7917L113.551 32.7024L113.861 33.6197L114.156 34.5434L114.437 35.4731L114.704 36.4087L114.955 37.3497L115.192 38.2961L115.415 39.2475L115.622 40.2036L115.815 41.1642L115.993 42.129L116.156 43.0978L116.305 44.0703L116.439 45.0462L116.558 46.0254L116.663 47.0076L116.753 47.9924Z" fill="url(#paint0_linear_138_537)" fill-opacity="0.08"/>
<path d="M38 53V46C38 34.415 41.5 25 59 25C76.5 25 80 34.415 80 46V53" stroke="#292D32" stroke-width="3.5" stroke-linecap="round" stroke-linejoin="round"/>
<path d="M76.5 95H41.5C27.5 95 24 91.5 24 77.5V70.5C24 56.5 27.5 53 41.5 53H76.5C90.5 53 94 56.5 94 70.5V77.5C94 91.5 90.5 95 76.5 95Z" stroke="#292D32" stroke-width="3.5" stroke-linecap="round" stroke-linejoin="round"/>
<path d="M72.9876 74H73.019" stroke="#292D32" stroke-width="3.5" stroke-linecap="round" stroke-linejoin="round"/>
<path d="M58.9842 74H59.0156" stroke="#292D32" stroke-width="3.5" stroke-linecap="round" stroke-linejoin="round"/>
<path d="M44.9808 74H45.0122" stroke="#292D32" stroke-width="3.5" stroke-linecap="round" stroke-linejoin="round"/>
<defs>
<linearGradient id="paint0_linear_138_537" x1="58.5" y1="0" x2="58.5" y2="127" gradientUnits="userSpaceOnUse">
<stop stop-color="#1C1C1C"/>
<stop offset="1" stop-color="#1C1C1C" stop-opacity="0"/>
</linearGradient>
</defs>
</svg>
